<svg xmlns="http://www.w3.org/2000/svg" viewBox="0 0 647 284" width="647" height="284"><defs></defs><g transform="matrix(1,0,0,1,-813.554175009,-114.435055156)">
<rect fill="#ffffff" fill-opacity="0" x="0" y="0" width="1920" height="1080"/>
<g>
	<g>
		<path d="M1137.0626312642758,114.43505515611409 C1137.0626312642758,114.43505515611409 1460.5710875194193,256.7592309227139 1460.5710875194193,256.7592309227139 C1460.5710875194193,256.7592309227139 1137.0626312642758,399.08340668931373 1137.0626312642758,399.08340668931373 C1137.0626312642758,399.08340668931373 813.5541750091322,256.7592309227139 813.5541750091322,256.7592309227139 C813.5541750091322,256.7592309227139 1137.0626312642758,114.43505515611409 1137.0626312642758,114.43505515611409 Z" fill="#b0c8b0"/>
	</g>
	<g>
		<path d="M1137.0626312642758,114.43505515611409 C1137.0626312642758,114.43505515611409 1460.5710875194193,256.7592309227139 1460.5710875194193,256.7592309227139 C1460.5710875194193,256.7592309227139 1137.0626312642758,399.08340668931373 1137.0626312642758,399.08340668931373 C1137.0626312642758,399.08340668931373 1137.0626312642758,114.43505515611409 1137.0626312642758,114.43505515611409 Z" fill="#9db49d"/>
	</g>
	<g>
		<path d="M1460.5710875194193,256.7592309227139 C1460.5710875194193,256.7592309227139 1137.0626312642758,399.08340668931373 1137.0626312642758,399.08340668931373 C1137.0626312642758,399.08340668931373 1137.0626312642755,327.4644302534856 1137.0626312642755,256.7592309227138 C1167.9525200521598,257.98817386844325 1460.5710875194193,256.7592309227139 1460.5710875194193,256.7592309227139 Z" fill="#869b86"/>
	</g>
	<g>
		<path d="M1137.0626312642758,114.43505515611409 C1137.0626312642758,114.43505515611409 813.5541750091322,256.7592309227139 813.5541750091322,256.7592309227139 L1139.0626312642758,256.7592309227139 C1139.0626312642758,256.7592309227139 1137.0626312642758,114.43505515611409 1137.0626312642758,114.43505515611409 Z" fill="#c5dfc5"/>
	</g>
	<g>
		<g transform="matrix(0.411157342,0,0,0.411157342,539.043452297,157.334693959)">
			<path d="M1043.7535019552809,278.17556005422983 Q1039.7273954037814,278.17556005422983 1037.0038527365905,275.3816734667428 Q1034.2803100693998,272.58778687925576 1034.2803100693998,268.45769366297054 Q1034.2803100693998,142.12543057659906 1034.2803100693998,142.12543057659906 Q1034.2803100693998,137.87386403042308 1037.0038527365905,135.20145077282677 Q1039.7273954037814,132.4075641853397 1043.7535019552809,132.4075641853397 Q1125.9334415653002,132.4075641853397 1125.9334415653002,132.4075641853397 Q1130.0779630153731,132.4075641853397 1132.5646758854168,134.95850411304528 Q1135.1698036540342,137.50944404075085 1135.1698036540342,141.6395372570361 Q1135.1698036540342,145.52668381353982 1132.5646758854168,147.95615041135466 Q1130.0779630153731,150.3856170091695 1125.9334415653002,150.3856170091695 Q1053.2266938411622,150.3856170091695 1053.2266938411622,150.3856170091695 C1053.2266938411622,150.3856170091695 1053.2266938411622,195.69516905841618 1053.2266938411622,195.69516905841618 C1053.2266938411622,195.69516905841618 1105.3292492135085,195.69516905841618 1105.3292492135085,195.69516905841618 Q1109.592185562155,195.69516905841618 1112.078898432199,198.24610898612175 Q1114.6840262008163,200.79704891382733 1114.6840262008163,204.68419547033108 Q1114.6840262008163,208.57134202683483 1112.078898432199,211.12228195454037 Q1109.592185562155,213.67322188224597 1105.3292492135085,213.67322188224597 Q1053.2266938411622,213.67322188224597 1053.2266938411622,213.67322188224597 C1053.2266938411622,213.67322188224597 1053.2266938411622,268.45769366297054 1053.2266938411622,268.45769366297054 Q1053.2266938411622,272.58778687925576 1050.3847362753977,275.3816734667428 Q1047.661193608207,278.17556005422983 1043.7535019552809,278.17556005422983 Q1043.7535019552809,278.17556005422983 1043.7535019552809,278.17556005422983 Z" transform="matrix(1,0,0,1,0,0)" fill="#000000" stroke="#a88b34" stroke-width="30"/>
		</g>
		<g transform="matrix(0.411157342,0,0,0.411157342,539.043452297,157.334693959)">
			<path d="M1183.8576634767485,278.1755600542299 Q1179.9499718238226,278.1755600542299 1177.2264291566319,275.3816734667429 Q1174.502886489441,272.58778687925576 1174.502886489441,268.45769366297054 Q1174.502886489441,142.1254305765991 1174.502886489441,142.1254305765991 Q1174.502886489441,137.87386403042314 1177.2264291566319,135.2014507728268 Q1179.9499718238226,132.40756418533977 1183.8576634767485,132.40756418533977 Q1227.434346151802,132.40756418533977 1227.434346151802,132.40756418533977 Q1239.7494956034475,132.40756418533977 1249.1042725907553,137.38797071086017 Q1258.4590495780628,142.36837723638058 1263.787720013871,151.11445698851398 Q1269.2348053482526,159.8605367406474 1269.2348053482526,171.2790297503771 Q1269.2348053482526,180.38952949218276 1264.3797945067386,187.799402615518 Q1259.5247836652245,195.08780240896252 1251.2357407650784,199.46084228502923 Q1263.1956455210034,202.37620220240703 1270.4189543339878,211.2437552844312 Q1277.7606780455458,219.98983503656459 1277.7606780455458,234.20221463378138 Q1277.7606780455458,246.95691427230926 1271.83993311687,256.91772732335005 Q1265.9191881881943,266.75706704450016 1255.3802622151516,272.46631354936505 Q1244.8413362421086,278.1755600542299 1231.2236229061546,278.1755600542299 Q1183.8576634767485,278.1755600542299 1183.8576634767485,278.1755600542299 ZM1193.3308553626298,260.31898056029087 C1193.3308553626298,260.31898056029087 1231.2236229061546,260.31898056029087 1231.2236229061546,260.31898056029087 Q1239.5126658063004,260.31898056029087 1245.9070703292703,257.2821473130223 Q1252.30147485224,254.24531406575377 1255.8539218094454,248.5360675608889 Q1259.5247836652245,242.7053477261333 1259.5247836652245,234.20221463378138 Q1259.5247836652245,226.06350153110168 1255.8539218094454,220.84014834579978 Q1252.30147485224,215.61679516049787 1245.9070703292703,212.94438190290157 Q1239.5126658063004,210.27196864530524 1231.2236229061546,210.27196864530524 Q1193.3308553626298,210.27196864530524 1193.3308553626298,210.27196864530524 C1193.3308553626298,210.27196864530524 1193.3308553626298,260.31898056029087 1193.3308553626298,260.31898056029087 ZM1193.3308553626298,192.29391582147545 C1193.3308553626298,192.29391582147545 1227.434346151802,192.29391582147545 1227.434346151802,192.29391582147545 Q1237.7364423276977,192.29391582147545 1244.3676766478145,187.07056263617358 Q1250.9989109679314,181.84720945087167 1250.9989109679314,171.2790297503771 Q1250.9989109679314,160.58937671999183 1244.3676766478145,155.4874968645807 Q1237.7364423276977,150.38561700916955 1227.434346151802,150.38561700916955 Q1193.3308553626298,150.38561700916955 1193.3308553626298,150.38561700916955 C1193.3308553626298,150.38561700916955 1193.3308553626298,192.29391582147545 1193.3308553626298,192.29391582147545 Z" transform="matrix(1,0,0,1,0,0)" fill="#000000" stroke="#3c7eac" stroke-width="30"/>
		</g>
	</g>
	<g>
		<g transform="matrix(0.411157342,0,0,0.411157342,534.748056455,162.425504281)">
			<path d="M1043.7535019552809,278.17556005422983 Q1039.7273954037814,278.17556005422983 1037.0038527365905,275.3816734667428 Q1034.2803100693998,272.58778687925576 1034.2803100693998,268.45769366297054 Q1034.2803100693998,142.12543057659906 1034.2803100693998,142.12543057659906 Q1034.2803100693998,137.87386403042308 1037.0038527365905,135.20145077282677 Q1039.7273954037814,132.4075641853397 1043.7535019552809,132.4075641853397 Q1125.9334415653002,132.4075641853397 1125.9334415653002,132.4075641853397 Q1130.0779630153731,132.4075641853397 1132.5646758854168,134.95850411304528 Q1135.1698036540342,137.50944404075085 1135.1698036540342,141.6395372570361 Q1135.1698036540342,145.52668381353982 1132.5646758854168,147.95615041135466 Q1130.0779630153731,150.3856170091695 1125.9334415653002,150.3856170091695 Q1053.2266938411622,150.3856170091695 1053.2266938411622,150.3856170091695 C1053.2266938411622,150.3856170091695 1053.2266938411622,195.69516905841618 1053.2266938411622,195.69516905841618 C1053.2266938411622,195.69516905841618 1105.3292492135085,195.69516905841618 1105.3292492135085,195.69516905841618 Q1109.592185562155,195.69516905841618 1112.078898432199,198.24610898612175 Q1114.6840262008163,200.79704891382733 1114.6840262008163,204.68419547033108 Q1114.6840262008163,208.57134202683483 1112.078898432199,211.12228195454037 Q1109.592185562155,213.67322188224597 1105.3292492135085,213.67322188224597 Q1053.2266938411622,213.67322188224597 1053.2266938411622,213.67322188224597 C1053.2266938411622,213.67322188224597 1053.2266938411622,268.45769366297054 1053.2266938411622,268.45769366297054 Q1053.2266938411622,272.58778687925576 1050.3847362753977,275.3816734667428 Q1047.661193608207,278.17556005422983 1043.7535019552809,278.17556005422983 Q1043.7535019552809,278.17556005422983 1043.7535019552809,278.17556005422983 Z" transform="matrix(1,0,0,1,0,0)" fill="#000000" stroke="#fed148" stroke-width="30"/>
		</g>
		<g transform="matrix(0.411157342,0,0,0.411157342,534.748056455,162.425504281)">
			<path d="M1183.8576634767485,278.1755600542299 Q1179.9499718238226,278.1755600542299 1177.2264291566319,275.3816734667429 Q1174.502886489441,272.58778687925576 1174.502886489441,268.45769366297054 Q1174.502886489441,142.1254305765991 1174.502886489441,142.1254305765991 Q1174.502886489441,137.87386403042314 1177.2264291566319,135.2014507728268 Q1179.9499718238226,132.40756418533977 1183.8576634767485,132.40756418533977 Q1227.434346151802,132.40756418533977 1227.434346151802,132.40756418533977 Q1239.7494956034475,132.40756418533977 1249.1042725907553,137.38797071086017 Q1258.4590495780628,142.36837723638058 1263.787720013871,151.11445698851398 Q1269.2348053482526,159.8605367406474 1269.2348053482526,171.2790297503771 Q1269.2348053482526,180.38952949218276 1264.3797945067386,187.799402615518 Q1259.5247836652245,195.08780240896252 1251.2357407650784,199.46084228502923 Q1263.1956455210034,202.37620220240703 1270.4189543339878,211.2437552844312 Q1277.7606780455458,219.98983503656459 1277.7606780455458,234.20221463378138 Q1277.7606780455458,246.95691427230926 1271.83993311687,256.91772732335005 Q1265.9191881881943,266.75706704450016 1255.3802622151516,272.46631354936505 Q1244.8413362421086,278.1755600542299 1231.2236229061546,278.1755600542299 Q1183.8576634767485,278.1755600542299 1183.8576634767485,278.1755600542299 ZM1193.3308553626298,260.31898056029087 C1193.3308553626298,260.31898056029087 1231.2236229061546,260.31898056029087 1231.2236229061546,260.31898056029087 Q1239.5126658063004,260.31898056029087 1245.9070703292703,257.2821473130223 Q1252.30147485224,254.24531406575377 1255.8539218094454,248.5360675608889 Q1259.5247836652245,242.7053477261333 1259.5247836652245,234.20221463378138 Q1259.5247836652245,226.06350153110168 1255.8539218094454,220.84014834579978 Q1252.30147485224,215.61679516049787 1245.9070703292703,212.94438190290157 Q1239.5126658063004,210.27196864530524 1231.2236229061546,210.27196864530524 Q1193.3308553626298,210.27196864530524 1193.3308553626298,210.27196864530524 C1193.3308553626298,210.27196864530524 1193.3308553626298,260.31898056029087 1193.3308553626298,260.31898056029087 ZM1193.3308553626298,192.29391582147545 C1193.3308553626298,192.29391582147545 1227.434346151802,192.29391582147545 1227.434346151802,192.29391582147545 Q1237.7364423276977,192.29391582147545 1244.3676766478145,187.07056263617358 Q1250.9989109679314,181.84720945087167 1250.9989109679314,171.2790297503771 Q1250.9989109679314,160.58937671999183 1244.3676766478145,155.4874968645807 Q1237.7364423276977,150.38561700916955 1227.434346151802,150.38561700916955 Q1193.3308553626298,150.38561700916955 1193.3308553626298,150.38561700916955 C1193.3308553626298,150.38561700916955 1193.3308553626298,192.29391582147545 1193.3308553626298,192.29391582147545 Z" transform="matrix(1,0,0,1,0,0)" fill="#000000" stroke="#58bafe" stroke-width="30"/>
		</g>
	</g>
	<g>
		<path d="M1086.9171570398878,278.4164412557153 Q1085.0722599289313,278.4164412557153 1083.824241295049,277.06616545176524 Q1082.5762226611666,275.7158896478152 1082.5762226611666,273.71982976371504 Q1082.5762226611666,212.6638803677113 1082.5762226611666,212.6638803677113 Q1082.5762226611666,210.60911283996117 1083.824241295049,209.3175446796611 Q1085.0722599289313,207.967268875711 1086.9171570398878,207.967268875711 Q1124.5747627752937,207.967268875711 1124.5747627752937,207.967268875711 Q1126.4739215659843,207.967268875711 1127.6134168403985,209.20012939236108 Q1128.8071737945468,210.43298990901116 1128.8071737945468,212.4290497931113 Q1128.8071737945468,214.3076943899114 1127.6134168403985,215.48184726291146 Q1126.4739215659843,216.65600013591154 1124.5747627752937,216.65600013591154 Q1091.258091418609,216.65600013591154 1091.258091418609,216.65600013591154 C1091.258091418609,216.65600013591154 1091.258091418609,238.55395121736288 1091.258091418609,238.55395121736288 C1091.258091418609,238.55395121736288 1115.1332305015753,238.55395121736288 1115.1332305015753,238.55395121736288 Q1117.0866509719997,238.55395121736288 1118.2261462464141,239.78681173401296 Q1119.4199032005624,241.01967225066304 1119.4199032005624,242.89831684746315 Q1119.4199032005624,244.77696144426326 1118.2261462464141,246.00982196091334 Q1117.0866509719997,247.24268247756342 1115.1332305015753,247.24268247756342 Q1091.258091418609,247.24268247756342 1091.258091418609,247.24268247756342 C1091.258091418609,247.24268247756342 1091.258091418609,273.71982976371504 1091.258091418609,273.71982976371504 Q1091.258091418609,275.7158896478152 1089.9558111049926,277.06616545176524 Q1088.7077924711102,278.4164412557153 1086.9171570398878,278.4164412557153 Q1086.9171570398878,278.4164412557153 1086.9171570398878,278.4164412557153 ZM1143.1865189240607,247.59492833946342 Q1143.1865189240607,242.1938251236631 1145.6282945120913,237.90816713721284 Q1148.070070100122,233.6225091507626 1152.2482194396412,231.09808047381242 Q1156.4263687791602,228.57365179686226 1161.4184433146895,228.57365179686226 Q1166.4105178502189,228.57365179686226 1168.8522934382495,230.3348811063624 Q1171.3483307060142,232.0374027722125 1170.75145222894,234.50312380551264 Q1170.48014383027,235.73598432216272 1169.7747419937277,236.44047604596275 Q1169.0693401571855,237.1449677697628 1168.1468916017072,237.3210907007128 Q1167.224443046229,237.49721363166282 1166.1392094515488,237.2036754134128 Q1160.8215648376154,236.02952254041273 1156.5348921386283,237.0275524824628 Q1152.302481119375,238.02558242451283 1149.8607055313444,240.72613403241303 Q1147.4189299433137,243.42668564031317 1147.4189299433137,247.59492833946342 Q1143.1865189240607,247.59492833946342 1143.1865189240607,247.59492833946342 ZM1143.2407806037947,278.4164412557153 Q1141.233098453636,278.4164412557153 1140.147864858956,277.3009960263653 Q1139.0626312642755,276.1855507970152 1139.0626312642755,273.895952694665 Q1139.0626312642755,233.6225091507626 1139.0626312642755,233.6225091507626 Q1139.0626312642755,231.45032633571245 1140.147864858956,230.2761734627124 Q1141.233098453636,229.1020205897123 1143.2407806037947,229.1020205897123 Q1145.3027244336872,229.1020205897123 1146.3336963486336,230.21746581906237 Q1147.4189299433137,231.33291104841243 1147.4189299433137,233.6225091507626 Q1147.4189299433137,273.895952694665 1147.4189299433137,273.895952694665 Q1147.4189299433137,276.06813550971515 1146.3336963486336,277.24228838271523 Q1145.3027244336872,278.4164412557153 1143.2407806037947,278.4164412557153 Q1143.2407806037947,278.4164412557153 1143.2407806037947,278.4164412557153 ZM1197.6682856737636,278.76868711761534 Q1190.777052347544,278.76868711761534 1185.3508843741424,275.5984743605151 Q1179.9789780804751,272.36955395976497 1176.9403240153702,266.7336201693646 Q1173.9016699502654,261.0976863789642 1173.9016699502654,253.8179385663638 Q1173.9016699502654,246.42077546646337 1176.7775389761682,240.78484167606302 Q1179.653408002071,235.14890788566268 1184.7540058970683,231.9786951285625 Q1189.8546037920657,228.74977472781228 1196.4202670398813,228.74977472781228 Q1202.931668607963,228.74977472781228 1207.5981730650883,231.86127984126247 Q1212.2646775222136,234.97278495471267 1214.7064531102442,240.432595814163 Q1217.1482286982748,245.89240667361332 1217.1482286982748,252.99603155526376 Q1217.1482286982748,254.69855322111385 1216.0629951035946,255.81399845046394 Q1214.9777615089142,256.929443679814 1213.349911116894,256.929443679814 Q1179.761931361539,256.929443679814 1179.761931361539,256.929443679814 C1179.761931361539,256.929443679814 1179.761931361539,249.76711115451357 1179.761931361539,249.76711115451357 C1179.761931361539,249.76711115451357 1213.078602718224,249.76711115451357 1213.078602718224,249.76711115451357 C1213.078602718224,249.76711115451357 1209.660116894981,252.29153983146372 1209.660116894981,252.29153983146372 Q1209.605855215247,247.77105127041344 1207.9780048232265,244.18988500776322 Q1206.40441611094,240.608718745113 1203.4742854053034,238.55395121736288 Q1200.5984163794005,236.49918368961275 1196.4202670398813,236.49918368961275 Q1191.6452392232882,236.49918368961275 1188.2810150797793,238.7887817919629 Q1184.9167909362704,241.01967225066304 1183.1261555050478,244.95308437521328 Q1181.3897817535594,248.8277888561135 1181.3897817535594,253.8179385663638 Q1181.3897817535594,258.7493806329641 1183.451725583452,262.62408511386434 Q1185.5679310930786,266.4987895947646 1189.2034636352575,268.78838769711473 Q1192.8932578571705,271.01927815581485 1197.6682856737636,271.01927815581485 Q1200.2728463009964,271.01927815581485 1202.931668607963,270.0212482137648 Q1205.644752594664,268.9645106280648 1207.3268646664183,267.61423482411465 Q1208.5748833003006,266.6162048820646 1210.039948653119,266.5574972384146 Q1211.5050140059375,266.4987895947646 1212.5902476006177,267.49681953681466 Q1214.0010512737022,268.8470953407647 1214.055312953436,270.4909093629648 Q1214.163836312904,272.07601574151494 1212.7530326398198,273.250168614515 Q1209.931425293651,275.7158896478152 1205.6990142743978,277.24228838271523 Q1201.5208649348788,278.76868711761534 1197.6682856737636,278.76868711761534 Q1197.6682856737636,278.76868711761534 1197.6682856737636,278.76868711761534 ZM1245.3174127030732,278.76868711761534 Q1239.2401045728634,278.76868711761534 1234.4108150765362,275.48105907321514 Q1229.581525580209,272.1934310288149 1226.7599182340402,266.5574972384146 Q1223.9925725676055,260.92156344801424 1223.9925725676055,253.8179385663638 Q1223.9925725676055,246.65560604106338 1227.0312266327103,241.01967225066304 Q1230.069880697815,235.3250308166127 1235.2790019522804,232.0374027722125 Q1240.4881232067457,228.74977472781228 1246.9995247748275,228.74977472781228 Q1253.5109263429092,228.74977472781228 1258.6657859176405,232.0374027722125 Q1263.820645492372,235.3250308166127 1266.8592995574768,241.01967225066304 Q1269.9522153023156,246.65560604106338 1269.9522153023156,253.8179385663638 Q1266.6965145182746,253.8179385663638 1266.6965145182746,253.8179385663638 Q1266.6965145182746,260.92156344801424 1263.8749071721058,266.5574972384146 Q1261.1075615056711,272.1934310288149 1256.278272009344,275.48105907321514 Q1251.4489825130167,278.76868711761534 1245.3174127030732,278.76868711761534 Q1245.3174127030732,278.76868711761534 1245.3174127030732,278.76868711761534 ZM1246.9995247748275,270.6670322939149 Q1251.2861974738146,270.6670322939149 1254.5961599375896,268.4948494788647 Q1257.9061224013644,266.2639590201646 1259.805281192055,262.44796218291435 Q1261.7587016624793,258.5732577020141 1261.7587016624793,253.8179385663638 Q1261.7587016624793,248.94520414341352 1259.805281192055,245.1292073061633 Q1257.9061224013644,241.25450282526305 1254.5961599375896,239.08232001021292 Q1251.2861974738146,236.85142955151278 1246.9995247748275,236.85142955151278 Q1242.8213754353085,236.85142955151278 1239.4571512917996,239.08232001021292 Q1236.0929271482905,241.25450282526305 1234.1395066778662,245.1292073061633 Q1232.1860862074416,248.94520414341352 1232.1860862074416,253.8179385663638 Q1232.1860862074416,258.5732577020141 1234.1395066778662,262.44796218291435 Q1236.0929271482905,266.2639590201646 1239.4571512917996,268.4948494788647 Q1242.8213754353085,270.6670322939149 1246.9995247748275,270.6670322939149 Q1246.9995247748275,270.6670322939149 1246.9995247748275,270.6670322939149 ZM1265.6655426033285,278.5338565430153 Q1263.820645492372,278.5338565430153 1262.6268885382237,277.24228838271523 Q1261.4331315840755,275.89201257876516 1261.4331315840755,273.895952694665 Q1261.4331315840755,260.0996564369142 1261.4331315840755,260.0996564369142 C1261.4331315840755,260.0996564369142 1263.0067202963617,250.5303105219636 1263.0067202963617,250.5303105219636 C1263.0067202963617,250.5303105219636 1269.9522153023156,253.8179385663638 1269.9522153023156,253.8179385663638 C1269.9522153023156,253.8179385663638 1269.9522153023156,273.895952694665 1269.9522153023156,273.895952694665 Q1269.9522153023156,275.89201257876516 1268.7041966684333,277.24228838271523 Q1267.510439714285,278.5338565430153 1265.6655426033285,278.5338565430153 Q1265.6655426033285,278.5338565430153 1265.6655426033285,278.5338565430153 ZM1290.6150655945244,260.3931946551642 C1290.6150655945244,260.3931946551642 1285.405944340059,254.22889207191383 1285.405944340059,254.22889207191383 C1285.405944340059,254.22889207191383 1311.0174571745138,229.51297409526234 1311.0174571745138,229.51297409526234 Q1312.265475808396,228.28011357861226 1313.7848028409485,228.39752886591225 Q1315.358391553235,228.45623650956227 1316.443625147915,229.80651231351234 Q1317.5831204223296,231.15678811746244 1317.4745970628614,232.80060213966254 Q1317.4203353831274,234.38570851821262 1316.172316749245,235.6772766785127 Q1290.6150655945244,260.3931946551642 1290.6150655945244,260.3931946551642 ZM1286.7082246536752,278.4164412557153 Q1284.8633275427187,278.4164412557153 1283.7238322683045,277.24228838271523 Q1282.5843369938902,276.00942786606515 1282.5843369938902,274.0133679819651 Q1282.5843369938902,212.4290497931113 1282.5843369938902,212.4290497931113 Q1282.5843369938902,210.43298990901116 1283.7238322683045,209.20012939236108 Q1284.8633275427187,207.967268875711 1286.7082246536752,207.967268875711 Q1288.4988600848978,207.967268875711 1289.638355359312,209.20012939236108 Q1290.7778506337263,210.43298990901116 1290.7778506337263,212.4290497931113 Q1290.7778506337263,274.0133679819651 1290.7778506337263,274.0133679819651 Q1290.7778506337263,276.00942786606515 1289.638355359312,277.24228838271523 Q1288.4988600848978,278.4164412557153 1286.7082246536752,278.4164412557153 Q1286.7082246536752,278.4164412557153 1286.7082246536752,278.4164412557153 ZM1316.443625147915,277.9467801065153 Q1315.0870831545649,279.1209329795154 1313.4592327625444,279.0035176922154 Q1311.831382370524,278.88610240491533 1310.7461487758437,277.4184113136653 Q1293.8707663785651,254.81596850841387 1293.8707663785651,254.81596850841387 C1293.8707663785651,254.81596850841387 1299.6767661101048,248.8277888561135 1299.6767661101048,248.8277888561135 C1299.6767661101048,248.8277888561135 1317.0405036249892,271.8998928105649 1317.0405036249892,271.8998928105649 Q1318.1257372196696,273.367583901815 1317.9629521804675,275.0701055676651 Q1317.8544288209996,276.7139195898652 1316.443625147915,277.9467801065153 Q1316.443625147915,277.9467801065153 1316.443625147915,277.9467801065153 ZM1338.2016976350287,300.07956176256664 Q1337.3335107592843,300.07956176256664 1336.19401548487,299.4924853260666 Q1332.5042212629571,297.7312560165665 1334.1863333347117,293.85655153566626 Q1359.6350611299645,231.68515691031246 1359.6350611299645,231.68515691031246 Q1361.2629115219847,227.92786771671223 1364.8441823844296,229.51297409526234 Q1368.5882382860768,231.27420340476243 1366.9603878940563,235.20761552931268 Q1341.4573984190695,297.26159486736645 1341.4573984190695,297.26159486736645 Q1340.4264265041234,300.07956176256664 1338.2016976350287,300.07956176256664 Q1338.2016976350287,300.07956176256664 1338.2016976350287,300.07956176256664 ZM1348.0230616668853,276.4203813716152 Q1346.4494729545988,277.12487309541524 1345.0386692815146,276.5965043025652 Q1343.682127288164,276.00942786606515 1342.868202092154,274.24819855656506 Q1323.7680908257807,235.03149259836266 1323.7680908257807,235.03149259836266 Q1322.9541656297706,233.32897093251256 1323.5510441068448,231.74386455396245 Q1324.202184263653,230.15875817541237 1325.7757729759394,229.45426645161234 Q1327.3493616882258,228.74977472781228 1328.76016536131,229.33685116431232 Q1330.1709690343946,229.92392760081236 1330.9306325506707,231.62644926666246 Q1349.2168186210336,270.84315522486486 1349.2168186210336,270.84315522486486 Q1350.030743817044,272.54567689071496 1349.8136970981077,274.13078326926507 Q1349.5966503791717,275.7158896478152 1348.0230616668853,276.4203813716152 Q1348.0230616668853,276.4203813716152 1348.0230616668853,276.4203813716152 Z" transform="matrix(1,0,0,1,0,0)" fill="#9f40c2" stroke="#9f40c2" stroke-width="2"/>
	</g>
	<g>
		<path d="M1084.9171570398878,281.4164412557153 Q1083.0722599289313,281.4164412557153 1081.824241295049,280.06616545176524 Q1080.5762226611666,278.7158896478152 1080.5762226611666,276.71982976371504 Q1080.5762226611666,215.66388036771133 1080.5762226611666,215.66388036771133 Q1080.5762226611666,213.6091128399612 1081.824241295049,212.31754467966113 Q1083.0722599289313,210.96726887571103 1084.9171570398878,210.96726887571103 Q1122.5747627752937,210.96726887571103 1122.5747627752937,210.96726887571103 Q1124.4739215659843,210.96726887571103 1125.6134168403985,212.2001293923611 Q1126.8071737945468,213.43298990901118 1126.8071737945468,215.42904979311132 Q1126.8071737945468,217.30769438991143 1125.6134168403985,218.4818472629115 Q1124.4739215659843,219.65600013591157 1122.5747627752937,219.65600013591157 Q1089.258091418609,219.65600013591157 1089.258091418609,219.65600013591157 C1089.258091418609,219.65600013591157 1089.258091418609,241.5539512173629 1089.258091418609,241.5539512173629 C1089.258091418609,241.5539512173629 1113.1332305015753,241.5539512173629 1113.1332305015753,241.5539512173629 Q1115.0866509719997,241.5539512173629 1116.2261462464141,242.78681173401299 Q1117.4199032005624,244.01967225066306 1117.4199032005624,245.89831684746318 Q1117.4199032005624,247.7769614442633 1116.2261462464141,249.00982196091337 Q1115.0866509719997,250.24268247756345 1113.1332305015753,250.24268247756345 Q1089.258091418609,250.24268247756345 1089.258091418609,250.24268247756345 C1089.258091418609,250.24268247756345 1089.258091418609,276.71982976371504 1089.258091418609,276.71982976371504 Q1089.258091418609,278.7158896478152 1087.9558111049926,280.06616545176524 Q1086.7077924711102,281.4164412557153 1084.9171570398878,281.4164412557153 Q1084.9171570398878,281.4164412557153 1084.9171570398878,281.4164412557153 ZM1141.1865189240607,250.59492833946345 Q1141.1865189240607,245.19382512366312 1143.6282945120913,240.90816713721287 Q1146.070070100122,236.6225091507626 1150.2482194396412,234.09808047381244 Q1154.4263687791602,231.5736517968623 1159.4184433146895,231.5736517968623 Q1164.4105178502189,231.5736517968623 1166.8522934382495,233.3348811063624 Q1169.3483307060142,235.03740277221252 1168.75145222894,237.50312380551264 Q1168.48014383027,238.73598432216272 1167.7747419937277,239.44047604596278 Q1167.0693401571855,240.14496776976281 1166.1468916017072,240.32109070071283 Q1165.224443046229,240.49721363166285 1164.1392094515488,240.20367541341284 Q1158.8215648376154,239.02952254041276 1154.5348921386283,240.0275524824628 Q1150.302481119375,241.0255824245129 1147.8607055313444,243.72613403241303 Q1145.4189299433137,246.4266856403132 1145.4189299433137,250.59492833946345 Q1141.1865189240607,250.59492833946345 1141.1865189240607,250.59492833946345 ZM1141.2407806037947,281.4164412557153 Q1139.233098453636,281.4164412557153 1138.147864858956,280.3009960263653 Q1137.0626312642755,279.1855507970152 1137.0626312642755,276.8959526946651 Q1137.0626312642755,236.6225091507626 1137.0626312642755,236.6225091507626 Q1137.0626312642755,234.45032633571248 1138.147864858956,233.2761734627124 Q1139.233098453636,232.10202058971234 1141.2407806037947,232.10202058971234 Q1143.3027244336872,232.10202058971234 1144.3336963486336,233.2174658190624 Q1145.4189299433137,234.33291104841246 1145.4189299433137,236.6225091507626 Q1145.4189299433137,276.8959526946651 1145.4189299433137,276.8959526946651 Q1145.4189299433137,279.0681355097152 1144.3336963486336,280.2422883827153 Q1143.3027244336872,281.4164412557153 1141.2407806037947,281.4164412557153 Q1141.2407806037947,281.4164412557153 1141.2407806037947,281.4164412557153 ZM1195.6682856737636,281.76868711761534 Q1188.777052347544,281.76868711761534 1183.3508843741424,278.5984743605152 Q1177.9789780804751,275.36955395976497 1174.9403240153702,269.7336201693646 Q1171.9016699502654,264.0976863789643 1171.9016699502654,256.81793856636386 Q1171.9016699502654,249.4207754664634 1174.7775389761682,243.78484167606302 Q1177.653408002071,238.1489078856627 1182.7540058970683,234.9786951285625 Q1187.8546037920657,231.7497747278123 1194.4202670398813,231.7497747278123 Q1200.931668607963,231.7497747278123 1205.5981730650883,234.8612798412625 Q1210.2646775222136,237.9727849547127 1212.7064531102442,243.43259581416302 Q1215.1482286982748,248.89240667361335 1215.1482286982748,255.99603155526378 Q1215.1482286982748,257.6985532211139 1214.0629951035946,258.81399845046394 Q1212.9777615089142,259.929443679814 1211.349911116894,259.929443679814 Q1177.761931361539,259.929443679814 1177.761931361539,259.929443679814 C1177.761931361539,259.929443679814 1177.761931361539,252.7671111545136 1177.761931361539,252.7671111545136 C1177.761931361539,252.7671111545136 1211.078602718224,252.7671111545136 1211.078602718224,252.7671111545136 C1211.078602718224,252.7671111545136 1207.660116894981,255.29153983146375 1207.660116894981,255.29153983146375 Q1207.605855215247,250.77105127041347 1205.9780048232265,247.18988500776325 Q1204.40441611094,243.60871874511304 1201.4742854053034,241.5539512173629 Q1198.5984163794005,239.49918368961278 1194.4202670398813,239.49918368961278 Q1189.6452392232882,239.49918368961278 1186.2810150797793,241.78878179196292 Q1182.9167909362704,244.01967225066306 1181.1261555050478,247.95308437521328 Q1179.3897817535594,251.82778885611353 1179.3897817535594,256.81793856636386 Q1179.3897817535594,261.7493806329641 1181.451725583452,265.62408511386434 Q1183.5679310930786,269.4987895947646 1187.2034636352575,271.7883876971148 Q1190.8932578571705,274.0192781558149 1195.6682856737636,274.0192781558149 Q1198.2728463009964,274.0192781558149 1200.931668607963,273.0212482137648 Q1203.644752594664,271.9645106280648 1205.3268646664183,270.61423482411465 Q1206.5748833003006,269.6162048820646 1208.039948653119,269.5574972384146 Q1209.5050140059375,269.4987895947646 1210.5902476006177,270.49681953681466 Q1212.0010512737022,271.8470953407648 1212.055312953436,273.4909093629649 Q1212.163836312904,275.07601574151494 1210.7530326398198,276.250168614515 Q1207.931425293651,278.7158896478152 1203.6990142743978,280.2422883827153 Q1199.5208649348788,281.76868711761534 1195.6682856737636,281.76868711761534 Q1195.6682856737636,281.76868711761534 1195.6682856737636,281.76868711761534 ZM1243.3174127030732,281.76868711761534 Q1237.2401045728634,281.76868711761534 1232.4108150765362,278.4810590732152 Q1227.581525580209,275.193431028815 1224.7599182340402,269.5574972384146 Q1221.9925725676055,263.92156344801424 1221.9925725676055,256.81793856636386 Q1221.9925725676055,249.6556060410634 1225.0312266327103,244.01967225066306 Q1228.069880697815,238.3250308166127 1233.2790019522804,235.03740277221252 Q1238.4881232067457,231.7497747278123 1244.9995247748275,231.7497747278123 Q1251.5109263429092,231.7497747278123 1256.6657859176405,235.03740277221252 Q1261.820645492372,238.3250308166127 1264.8592995574768,244.01967225066306 Q1267.9522153023156,249.6556060410634 1267.9522153023156,256.81793856636386 Q1264.6965145182746,256.81793856636386 1264.6965145182746,256.81793856636386 Q1264.6965145182746,263.92156344801424 1261.8749071721058,269.5574972384146 Q1259.1075615056711,275.193431028815 1254.278272009344,278.4810590732152 Q1249.4489825130167,281.76868711761534 1243.3174127030732,281.76868711761534 Q1243.3174127030732,281.76868711761534 1243.3174127030732,281.76868711761534 ZM1244.9995247748275,273.6670322939149 Q1249.2861974738146,273.6670322939149 1252.5961599375896,271.49484947886475 Q1255.9061224013644,269.2639590201646 1257.805281192055,265.44796218291435 Q1259.7587016624793,261.57325770201413 1259.7587016624793,256.81793856636386 Q1259.7587016624793,251.94520414341355 1257.805281192055,248.12920730616332 Q1255.9061224013644,244.25450282526307 1252.5961599375896,242.08232001021292 Q1249.2861974738146,239.8514295515128 1244.9995247748275,239.8514295515128 Q1240.8213754353085,239.8514295515128 1237.4571512917996,242.08232001021292 Q1234.0929271482905,244.25450282526307 1232.1395066778662,248.12920730616332 Q1230.1860862074416,251.94520414341355 1230.1860862074416,256.81793856636386 Q1230.1860862074416,261.57325770201413 1232.1395066778662,265.44796218291435 Q1234.0929271482905,269.2639590201646 1237.4571512917996,271.49484947886475 Q1240.8213754353085,273.6670322939149 1244.9995247748275,273.6670322939149 Q1244.9995247748275,273.6670322939149 1244.9995247748275,273.6670322939149 ZM1263.6655426033285,281.53385654301536 Q1261.820645492372,281.53385654301536 1260.6268885382237,280.2422883827153 Q1259.4331315840755,278.89201257876516 1259.4331315840755,276.8959526946651 Q1259.4331315840755,263.0996564369142 1259.4331315840755,263.0996564369142 C1259.4331315840755,263.0996564369142 1261.0067202963617,253.53031052196363 1261.0067202963617,253.53031052196363 C1261.0067202963617,253.53031052196363 1267.9522153023156,256.81793856636386 1267.9522153023156,256.81793856636386 C1267.9522153023156,256.81793856636386 1267.9522153023156,276.8959526946651 1267.9522153023156,276.8959526946651 Q1267.9522153023156,278.89201257876516 1266.7041966684333,280.2422883827153 Q1265.510439714285,281.53385654301536 1263.6655426033285,281.53385654301536 Q1263.6655426033285,281.53385654301536 1263.6655426033285,281.53385654301536 ZM1288.6150655945244,263.3931946551642 C1288.6150655945244,263.3931946551642 1283.405944340059,257.22889207191383 1283.405944340059,257.22889207191383 C1283.405944340059,257.22889207191383 1309.0174571745138,232.51297409526234 1309.0174571745138,232.51297409526234 Q1310.265475808396,231.2801135786123 1311.7848028409485,231.39752886591228 Q1313.358391553235,231.4562365095623 1314.443625147915,232.80651231351237 Q1315.5831204223296,234.15678811746244 1315.4745970628614,235.80060213966254 Q1315.4203353831274,237.38570851821265 1314.172316749245,238.67727667851273 Q1288.6150655945244,263.3931946551642 1288.6150655945244,263.3931946551642 ZM1284.7082246536752,281.4164412557153 Q1282.8633275427187,281.4164412557153 1281.7238322683045,280.2422883827153 Q1280.5843369938902,279.0094278660652 1280.5843369938902,277.0133679819651 Q1280.5843369938902,215.42904979311132 1280.5843369938902,215.42904979311132 Q1280.5843369938902,213.43298990901118 1281.7238322683045,212.2001293923611 Q1282.8633275427187,210.96726887571103 1284.7082246536752,210.96726887571103 Q1286.4988600848978,210.96726887571103 1287.638355359312,212.2001293923611 Q1288.7778506337263,213.43298990901118 1288.7778506337263,215.42904979311132 Q1288.7778506337263,277.0133679819651 1288.7778506337263,277.0133679819651 Q1288.7778506337263,279.0094278660652 1287.638355359312,280.2422883827153 Q1286.4988600848978,281.4164412557153 1284.7082246536752,281.4164412557153 Q1284.7082246536752,281.4164412557153 1284.7082246536752,281.4164412557153 ZM1314.443625147915,280.9467801065153 Q1313.0870831545649,282.1209329795154 1311.4592327625444,282.0035176922154 Q1309.831382370524,281.8861024049154 1308.7461487758437,280.4184113136653 Q1291.8707663785651,257.8159685084139 1291.8707663785651,257.8159685084139 C1291.8707663785651,257.8159685084139 1297.6767661101048,251.82778885611353 1297.6767661101048,251.82778885611353 C1297.6767661101048,251.82778885611353 1315.0405036249892,274.89989281056495 1315.0405036249892,274.89989281056495 Q1316.1257372196696,276.367583901815 1315.9629521804675,278.0701055676651 Q1315.8544288209996,279.7139195898652 1314.443625147915,280.9467801065153 Q1314.443625147915,280.9467801065153 1314.443625147915,280.9467801065153 ZM1336.2016976350287,303.07956176256664 Q1335.3335107592843,303.07956176256664 1334.19401548487,302.4924853260666 Q1330.5042212629571,300.73125601656653 1332.1863333347117,296.8565515356663 Q1357.6350611299645,234.6851569103125 1357.6350611299645,234.6851569103125 Q1359.2629115219847,230.92786771671226 1362.8441823844296,232.51297409526234 Q1366.5882382860768,234.27420340476246 1364.9603878940563,238.2076155293127 Q1339.4573984190695,300.2615948673665 1339.4573984190695,300.2615948673665 Q1338.4264265041234,303.07956176256664 1336.2016976350287,303.07956176256664 Q1336.2016976350287,303.07956176256664 1336.2016976350287,303.07956176256664 ZM1346.0230616668853,279.42038137161524 Q1344.4494729545988,280.12487309541524 1343.0386692815146,279.5965043025652 Q1341.682127288164,279.0094278660652 1340.868202092154,277.24819855656506 Q1321.7680908257807,238.0314925983627 1321.7680908257807,238.0314925983627 Q1320.9541656297706,236.3289709325126 1321.5510441068448,234.74386455396248 Q1322.202184263653,233.1587581754124 1323.7757729759394,232.45426645161234 Q1325.3493616882258,231.7497747278123 1326.76016536131,232.33685116431235 Q1328.1709690343946,232.92392760081236 1328.9306325506707,234.6264492666625 Q1347.2168186210336,273.84315522486486 1347.2168186210336,273.84315522486486 Q1348.030743817044,275.54567689071496 1347.8136970981077,277.13078326926507 Q1347.5966503791717,278.7158896478152 1346.0230616668853,279.42038137161524 Q1346.0230616668853,279.42038137161524 1346.0230616668853,279.42038137161524 Z" transform="matrix(1,0,0,1,0,0)" fill="#ec58fe" stroke="#ec58fe" stroke-width="2"/>
	</g>
</g></g></svg>