<svg xmlns="http://www.w3.org/2000/svg" viewBox="0 0 184 184" width="184" height="184"><defs></defs><g transform="matrix(1,0,0,1,-915.396962116,-152.144708068)">
<rect fill="#000000" fill-opacity="0" x="0" y="0" width="1920" height="1080"/>
<g>
	<g>
		<path d="M915.3969621158419,152.14470806810948 L1099.477049365331,152.14470806810948 L1099.477049365331,336.7258801322058 L915.3969621158419,336.7258801322058 L915.3969621158419,152.14470806810948 Z" fill="#ffffff" fill-opacity="0"/>
	</g>
	<g>
		<path d="M1007.4370089324167,167.36437098098375 C1049.9635711189535,167.36437098098375 1084.5079320515906,201.90873191362078 1084.5079320515906,244.4352941001576 C1084.5079320515906,286.9618562866944 1049.9635711189535,321.50621721933146 1007.4370089324167,321.50621721933146 C964.9104467458799,321.50621721933146 930.3660858132429,286.9618562866944 930.3660858132429,244.4352941001576 C930.3660858132429,201.90873191362078 964.9104467458799,167.36437098098375 1007.4370089324167,167.36437098098375 Z" transform="matrix(1,0,0,1,0,0)" fill="#f4e6f4" stroke="#eabeea" stroke-opacity="0.7" stroke-width="30"/>
	</g>
	<g>
		<path d="M1007.4370089324167,321.50621721933146 C964.9104467458799,321.50621721933146 930.3660858132429,286.9618562866944 930.3660858132429,244.4352941001576 C930.3660858132429,201.90873191362078 1049.9635711189535,321.50621721933146 1007.4370089324167,321.50621721933146 Z" transform="matrix(1,0,0,1,0,0)" fill="#e6f3f4" stroke="#a3e4e9" stroke-opacity="0.7" stroke-width="30"/>
	</g>
	<g>
		<path d="M1007.4370089324167,167.36437098098372 C1049.9635711189535,167.36437098098372 1084.5079320515906,201.90873191362078 1084.5079320515906,244.4352941001576 C1084.5079320515906,286.9618562866944 964.9104467458799,167.36437098098372 1007.4370089324167,167.36437098098372 Z" transform="matrix(1,0,0,1,0,0)" fill="#f4efe6" stroke="#e6c68c" stroke-opacity="0.7" stroke-width="30"/>
	</g>
	<g>
		<g transform="matrix(0.411157342,0,0,0.411157342,539.043452297,157.334693959)">
			<path d="M1043.7535019552809,278.17556005422983 Q1039.7273954037814,278.17556005422983 1037.0038527365905,275.3816734667428 Q1034.2803100693998,272.58778687925576 1034.2803100693998,268.45769366297054 Q1034.2803100693998,142.12543057659906 1034.2803100693998,142.12543057659906 Q1034.2803100693998,137.87386403042308 1037.0038527365905,135.20145077282677 Q1039.7273954037814,132.4075641853397 1043.7535019552809,132.4075641853397 Q1125.9334415653002,132.4075641853397 1125.9334415653002,132.4075641853397 Q1130.0779630153731,132.4075641853397 1132.5646758854168,134.95850411304528 Q1135.1698036540342,137.50944404075085 1135.1698036540342,141.6395372570361 Q1135.1698036540342,145.52668381353982 1132.5646758854168,147.95615041135466 Q1130.0779630153731,150.3856170091695 1125.9334415653002,150.3856170091695 Q1053.2266938411622,150.3856170091695 1053.2266938411622,150.3856170091695 C1053.2266938411622,150.3856170091695 1053.2266938411622,195.69516905841618 1053.2266938411622,195.69516905841618 C1053.2266938411622,195.69516905841618 1105.3292492135085,195.69516905841618 1105.3292492135085,195.69516905841618 Q1109.592185562155,195.69516905841618 1112.078898432199,198.24610898612175 Q1114.6840262008163,200.79704891382733 1114.6840262008163,204.68419547033108 Q1114.6840262008163,208.57134202683483 1112.078898432199,211.12228195454037 Q1109.592185562155,213.67322188224597 1105.3292492135085,213.67322188224597 Q1053.2266938411622,213.67322188224597 1053.2266938411622,213.67322188224597 C1053.2266938411622,213.67322188224597 1053.2266938411622,268.45769366297054 1053.2266938411622,268.45769366297054 Q1053.2266938411622,272.58778687925576 1050.3847362753977,275.3816734667428 Q1047.661193608207,278.17556005422983 1043.7535019552809,278.17556005422983 Q1043.7535019552809,278.17556005422983 1043.7535019552809,278.17556005422983 Z" transform="matrix(1,0,0,1,0,0)" fill="#000000" stroke="#a88b34" stroke-width="30"/>
		</g>
		<g transform="matrix(0.411157342,0,0,0.411157342,539.043452297,157.334693959)">
			<path d="M1183.8576634767485,278.1755600542299 Q1179.9499718238226,278.1755600542299 1177.2264291566319,275.3816734667429 Q1174.502886489441,272.58778687925576 1174.502886489441,268.45769366297054 Q1174.502886489441,142.1254305765991 1174.502886489441,142.1254305765991 Q1174.502886489441,137.87386403042314 1177.2264291566319,135.2014507728268 Q1179.9499718238226,132.40756418533977 1183.8576634767485,132.40756418533977 Q1227.434346151802,132.40756418533977 1227.434346151802,132.40756418533977 Q1239.7494956034475,132.40756418533977 1249.1042725907553,137.38797071086017 Q1258.4590495780628,142.36837723638058 1263.787720013871,151.11445698851398 Q1269.2348053482526,159.8605367406474 1269.2348053482526,171.2790297503771 Q1269.2348053482526,180.38952949218276 1264.3797945067386,187.799402615518 Q1259.5247836652245,195.08780240896252 1251.2357407650784,199.46084228502923 Q1263.1956455210034,202.37620220240703 1270.4189543339878,211.2437552844312 Q1277.7606780455458,219.98983503656459 1277.7606780455458,234.20221463378138 Q1277.7606780455458,246.95691427230926 1271.83993311687,256.91772732335005 Q1265.9191881881943,266.75706704450016 1255.3802622151516,272.46631354936505 Q1244.8413362421086,278.1755600542299 1231.2236229061546,278.1755600542299 Q1183.8576634767485,278.1755600542299 1183.8576634767485,278.1755600542299 ZM1193.3308553626298,260.31898056029087 C1193.3308553626298,260.31898056029087 1231.2236229061546,260.31898056029087 1231.2236229061546,260.31898056029087 Q1239.5126658063004,260.31898056029087 1245.9070703292703,257.2821473130223 Q1252.30147485224,254.24531406575377 1255.8539218094454,248.5360675608889 Q1259.5247836652245,242.7053477261333 1259.5247836652245,234.20221463378138 Q1259.5247836652245,226.06350153110168 1255.8539218094454,220.84014834579978 Q1252.30147485224,215.61679516049787 1245.9070703292703,212.94438190290157 Q1239.5126658063004,210.27196864530524 1231.2236229061546,210.27196864530524 Q1193.3308553626298,210.27196864530524 1193.3308553626298,210.27196864530524 C1193.3308553626298,210.27196864530524 1193.3308553626298,260.31898056029087 1193.3308553626298,260.31898056029087 ZM1193.3308553626298,192.29391582147545 C1193.3308553626298,192.29391582147545 1227.434346151802,192.29391582147545 1227.434346151802,192.29391582147545 Q1237.7364423276977,192.29391582147545 1244.3676766478145,187.07056263617358 Q1250.9989109679314,181.84720945087167 1250.9989109679314,171.2790297503771 Q1250.9989109679314,160.58937671999183 1244.3676766478145,155.4874968645807 Q1237.7364423276977,150.38561700916955 1227.434346151802,150.38561700916955 Q1193.3308553626298,150.38561700916955 1193.3308553626298,150.38561700916955 C1193.3308553626298,150.38561700916955 1193.3308553626298,192.29391582147545 1193.3308553626298,192.29391582147545 Z" transform="matrix(1,0,0,1,0,0)" fill="#000000" stroke="#3c7eac" stroke-width="30"/>
		</g>
	</g>
	<g>
		<g transform="matrix(0.411157342,0,0,0.411157342,534.748056455,162.425504281)">
			<path d="M1043.7535019552809,278.17556005422983 Q1039.7273954037814,278.17556005422983 1037.0038527365905,275.3816734667428 Q1034.2803100693998,272.58778687925576 1034.2803100693998,268.45769366297054 Q1034.2803100693998,142.12543057659906 1034.2803100693998,142.12543057659906 Q1034.2803100693998,137.87386403042308 1037.0038527365905,135.20145077282677 Q1039.7273954037814,132.4075641853397 1043.7535019552809,132.4075641853397 Q1125.9334415653002,132.4075641853397 1125.9334415653002,132.4075641853397 Q1130.0779630153731,132.4075641853397 1132.5646758854168,134.95850411304528 Q1135.1698036540342,137.50944404075085 1135.1698036540342,141.6395372570361 Q1135.1698036540342,145.52668381353982 1132.5646758854168,147.95615041135466 Q1130.0779630153731,150.3856170091695 1125.9334415653002,150.3856170091695 Q1053.2266938411622,150.3856170091695 1053.2266938411622,150.3856170091695 C1053.2266938411622,150.3856170091695 1053.2266938411622,195.69516905841618 1053.2266938411622,195.69516905841618 C1053.2266938411622,195.69516905841618 1105.3292492135085,195.69516905841618 1105.3292492135085,195.69516905841618 Q1109.592185562155,195.69516905841618 1112.078898432199,198.24610898612175 Q1114.6840262008163,200.79704891382733 1114.6840262008163,204.68419547033108 Q1114.6840262008163,208.57134202683483 1112.078898432199,211.12228195454037 Q1109.592185562155,213.67322188224597 1105.3292492135085,213.67322188224597 Q1053.2266938411622,213.67322188224597 1053.2266938411622,213.67322188224597 C1053.2266938411622,213.67322188224597 1053.2266938411622,268.45769366297054 1053.2266938411622,268.45769366297054 Q1053.2266938411622,272.58778687925576 1050.3847362753977,275.3816734667428 Q1047.661193608207,278.17556005422983 1043.7535019552809,278.17556005422983 Q1043.7535019552809,278.17556005422983 1043.7535019552809,278.17556005422983 Z" transform="matrix(1,0,0,1,0,0)" fill="#000000" stroke="#fed148" stroke-width="30"/>
		</g>
		<g transform="matrix(0.411157342,0,0,0.411157342,534.748056455,162.425504281)">
			<path d="M1183.8576634767485,278.1755600542299 Q1179.9499718238226,278.1755600542299 1177.2264291566319,275.3816734667429 Q1174.502886489441,272.5877868792558 1174.502886489441,268.4576936629706 Q1174.502886489441,142.12543057659911 1174.502886489441,142.12543057659911 Q1174.502886489441,137.87386403042314 1177.2264291566319,135.20145077282683 Q1179.9499718238226,132.40756418533977 1183.8576634767485,132.40756418533977 Q1227.434346151802,132.40756418533977 1227.434346151802,132.40756418533977 Q1239.7494956034475,132.40756418533977 1249.1042725907553,137.38797071086017 Q1258.4590495780628,142.36837723638058 1263.787720013871,151.114456988514 Q1269.2348053482526,159.8605367406474 1269.2348053482526,171.27902975037713 Q1269.2348053482526,180.38952949218276 1264.3797945067386,187.79940261551803 Q1259.5247836652245,195.08780240896255 1251.2357407650784,199.46084228502923 Q1263.1956455210034,202.37620220240706 1270.4189543339878,211.2437552844312 Q1277.7606780455458,219.9898350365646 1277.7606780455458,234.2022146337814 Q1277.7606780455458,246.9569142723093 1271.83993311687,256.9177273233501 Q1265.9191881881943,266.75706704450016 1255.3802622151516,272.46631354936505 Q1244.8413362421086,278.1755600542299 1231.2236229061546,278.1755600542299 Q1183.8576634767485,278.1755600542299 1183.8576634767485,278.1755600542299 ZM1193.3308553626298,260.31898056029087 C1193.3308553626298,260.31898056029087 1231.2236229061546,260.31898056029087 1231.2236229061546,260.31898056029087 Q1239.5126658063004,260.31898056029087 1245.9070703292703,257.28214731302234 Q1252.30147485224,254.2453140657538 1255.8539218094454,248.5360675608889 Q1259.5247836652245,242.7053477261333 1259.5247836652245,234.2022146337814 Q1259.5247836652245,226.06350153110168 1255.8539218094454,220.84014834579978 Q1252.30147485224,215.61679516049787 1245.9070703292703,212.94438190290157 Q1239.5126658063004,210.27196864530526 1231.2236229061546,210.27196864530526 Q1193.3308553626298,210.27196864530526 1193.3308553626298,210.27196864530526 C1193.3308553626298,210.27196864530526 1193.3308553626298,260.31898056029087 1193.3308553626298,260.31898056029087 ZM1193.3308553626298,192.29391582147548 C1193.3308553626298,192.29391582147548 1227.434346151802,192.29391582147548 1227.434346151802,192.29391582147548 Q1237.7364423276977,192.29391582147548 1244.3676766478145,187.07056263617358 Q1250.9989109679314,181.84720945087167 1250.9989109679314,171.27902975037713 Q1250.9989109679314,160.58937671999186 1244.3676766478145,155.4874968645807 Q1237.7364423276977,150.38561700916955 1227.434346151802,150.38561700916955 Q1193.3308553626298,150.38561700916955 1193.3308553626298,150.38561700916955 C1193.3308553626298,150.38561700916955 1193.3308553626298,192.29391582147548 1193.3308553626298,192.29391582147548 Z" transform="matrix(1,0,0,1,0,0)" fill="#000000" stroke="#58bafe" stroke-width="30"/>
		</g>
	</g>
</g></g></svg>